<mxfile host="app.diagrams.net" agent="Mozilla/5.0 (Windows NT 10.0; Win64; x64) AppleWebKit/537.36 (KHTML, like Gecko) Chrome/131.0.0.0 Safari/537.36" version="26.0.4">
  <diagram name="Page-1" id="YVaNV-BU0bV5zj3uvlzo">
    <mxGraphModel dx="3360" dy="2686" grid="1" gridSize="10" guides="1" tooltips="1" connect="1" arrows="1" fold="1" page="1" pageScale="1" pageWidth="827" pageHeight="1169" math="0" shadow="0">
      <root>
        <mxCell id="0" />
        <mxCell id="1" parent="0" />
        <mxCell id="QajGnKFh3IwkEZgxlkdg-1" value="" style="whiteSpace=wrap;html=1;aspect=fixed;" vertex="1" parent="1">
          <mxGeometry x="190" y="-180" width="2240" height="2240" as="geometry" />
        </mxCell>
        <mxCell id="QajGnKFh3IwkEZgxlkdg-2" value="&lt;span style=&quot;box-sizing: border-box; border: 0px solid; --tw-border-spacing-x: 0; --tw-border-spacing-y: 0; --tw-translate-x: 0; --tw-translate-y: 0; --tw-rotate: 0; --tw-skew-x: 0; --tw-skew-y: 0; --tw-scale-x: 1; --tw-scale-y: 1; --tw-pan-x: ; --tw-pan-y: ; --tw-pinch-zoom: ; --tw-scroll-snap-strictness: proximity; --tw-gradient-from-position: ; --tw-gradient-via-position: ; --tw-gradient-to-position: ; --tw-ordinal: ; --tw-slashed-zero: ; --tw-numeric-figure: ; --tw-numeric-spacing: ; --tw-numeric-fraction: ; --tw-ring-inset: ; --tw-ring-offset-width: 0px; --tw-ring-offset-color: #fff; --tw-ring-color: rgba(59,130,246,.5); --tw-ring-offset-shadow: 0 0 #0000; --tw-ring-shadow: 0 0 #0000; --tw-shadow: 0 0 #0000; --tw-shadow-colored: 0 0 #0000; --tw-blur: ; --tw-brightness: ; --tw-contrast: ; --tw-grayscale: ; --tw-hue-rotate: ; --tw-invert: ; --tw-saturate: ; --tw-sepia: ; --tw-drop-shadow: ; --tw-backdrop-blur: ; --tw-backdrop-brightness: ; --tw-backdrop-contrast: ; --tw-backdrop-grayscale: ; --tw-backdrop-hue-rotate: ; --tw-backdrop-invert: ; --tw-backdrop-opacity: ; --tw-backdrop-saturate: ; --tw-backdrop-sepia: ; --tw-contain-size: ; --tw-contain-layout: ; --tw-contain-paint: ; --tw-contain-style: ; font-weight: bolder; color: rgb(0, 0, 0); font-family: &amp;quot;Nunito Sans&amp;quot;, sans-serif; font-size: 14px; text-align: start; white-space: pre-wrap; background-color: rgb(255, 255, 255);&quot;&gt;Visiteur&lt;/span&gt;" style="shape=umlActor;verticalLabelPosition=bottom;verticalAlign=top;html=1;outlineConnect=0;" vertex="1" parent="1">
          <mxGeometry x="80" y="280" width="50" height="90" as="geometry" />
        </mxCell>
        <mxCell id="QajGnKFh3IwkEZgxlkdg-3" value="&lt;span style=&quot;box-sizing: border-box; border: 0px solid; --tw-border-spacing-x: 0; --tw-border-spacing-y: 0; --tw-translate-x: 0; --tw-translate-y: 0; --tw-rotate: 0; --tw-skew-x: 0; --tw-skew-y: 0; --tw-scale-x: 1; --tw-scale-y: 1; --tw-pan-x: ; --tw-pan-y: ; --tw-pinch-zoom: ; --tw-scroll-snap-strictness: proximity; --tw-gradient-from-position: ; --tw-gradient-via-position: ; --tw-gradient-to-position: ; --tw-ordinal: ; --tw-slashed-zero: ; --tw-numeric-figure: ; --tw-numeric-spacing: ; --tw-numeric-fraction: ; --tw-ring-inset: ; --tw-ring-offset-width: 0px; --tw-ring-offset-color: #fff; --tw-ring-color: rgba(59,130,246,.5); --tw-ring-offset-shadow: 0 0 #0000; --tw-ring-shadow: 0 0 #0000; --tw-shadow: 0 0 #0000; --tw-shadow-colored: 0 0 #0000; --tw-blur: ; --tw-brightness: ; --tw-contrast: ; --tw-grayscale: ; --tw-hue-rotate: ; --tw-invert: ; --tw-saturate: ; --tw-sepia: ; --tw-drop-shadow: ; --tw-backdrop-blur: ; --tw-backdrop-brightness: ; --tw-backdrop-contrast: ; --tw-backdrop-grayscale: ; --tw-backdrop-hue-rotate: ; --tw-backdrop-invert: ; --tw-backdrop-opacity: ; --tw-backdrop-saturate: ; --tw-backdrop-sepia: ; --tw-contain-size: ; --tw-contain-layout: ; --tw-contain-paint: ; --tw-contain-style: ; font-weight: bolder; color: rgb(0, 0, 0); font-family: &amp;quot;Nunito Sans&amp;quot;, sans-serif; font-size: 14px; text-align: start; white-space: pre-wrap; background-color: rgb(255, 255, 255);&quot;&gt;Étudiant&lt;/span&gt;" style="shape=umlActor;verticalLabelPosition=bottom;verticalAlign=top;html=1;outlineConnect=0;" vertex="1" parent="1">
          <mxGeometry x="100" y="480" width="30" height="60" as="geometry" />
        </mxCell>
        <mxCell id="QajGnKFh3IwkEZgxlkdg-4" value="&lt;span style=&quot;box-sizing: border-box; border: 0px solid; --tw-border-spacing-x: 0; --tw-border-spacing-y: 0; --tw-translate-x: 0; --tw-translate-y: 0; --tw-rotate: 0; --tw-skew-x: 0; --tw-skew-y: 0; --tw-scale-x: 1; --tw-scale-y: 1; --tw-pan-x: ; --tw-pan-y: ; --tw-pinch-zoom: ; --tw-scroll-snap-strictness: proximity; --tw-gradient-from-position: ; --tw-gradient-via-position: ; --tw-gradient-to-position: ; --tw-ordinal: ; --tw-slashed-zero: ; --tw-numeric-figure: ; --tw-numeric-spacing: ; --tw-numeric-fraction: ; --tw-ring-inset: ; --tw-ring-offset-width: 0px; --tw-ring-offset-color: #fff; --tw-ring-color: rgba(59,130,246,.5); --tw-ring-offset-shadow: 0 0 #0000; --tw-ring-shadow: 0 0 #0000; --tw-shadow: 0 0 #0000; --tw-shadow-colored: 0 0 #0000; --tw-blur: ; --tw-brightness: ; --tw-contrast: ; --tw-grayscale: ; --tw-hue-rotate: ; --tw-invert: ; --tw-saturate: ; --tw-sepia: ; --tw-drop-shadow: ; --tw-backdrop-blur: ; --tw-backdrop-brightness: ; --tw-backdrop-contrast: ; --tw-backdrop-grayscale: ; --tw-backdrop-hue-rotate: ; --tw-backdrop-invert: ; --tw-backdrop-opacity: ; --tw-backdrop-saturate: ; --tw-backdrop-sepia: ; --tw-contain-size: ; --tw-contain-layout: ; --tw-contain-paint: ; --tw-contain-style: ; font-weight: bolder; color: rgb(0, 0, 0); font-family: &amp;quot;Nunito Sans&amp;quot;, sans-serif; font-size: 14px; text-align: start; white-space: pre-wrap; background-color: rgb(255, 255, 255);&quot;&gt;Enseignant&lt;/span&gt;" style="shape=umlActor;verticalLabelPosition=bottom;verticalAlign=top;html=1;outlineConnect=0;" vertex="1" parent="1">
          <mxGeometry x="100" y="760" width="30" height="60" as="geometry" />
        </mxCell>
        <mxCell id="QajGnKFh3IwkEZgxlkdg-13" value="&lt;span style=&quot;color: rgb(0, 0, 0); font-family: &amp;quot;Nunito Sans&amp;quot;, sans-serif; text-align: left; background-color: rgb(255, 255, 255);&quot;&gt;&lt;font style=&quot;font-size: 24px;&quot;&gt;Recherche de cours&lt;/font&gt;&lt;/span&gt;" style="ellipse;whiteSpace=wrap;html=1;" vertex="1" parent="1">
          <mxGeometry x="512.5" y="270" width="337.5" height="70" as="geometry" />
        </mxCell>
        <mxCell id="QajGnKFh3IwkEZgxlkdg-14" value="&lt;span style=&quot;color: rgb(0, 0, 0); font-family: &amp;quot;Nunito Sans&amp;quot;, sans-serif; text-align: left; background-color: rgb(255, 255, 255);&quot;&gt;&lt;font style=&quot;font-size: 24px;&quot;&gt;Création d’un&amp;nbsp;compte Enseignant&lt;/font&gt;&lt;/span&gt;" style="ellipse;whiteSpace=wrap;html=1;" vertex="1" parent="1">
          <mxGeometry x="1160" y="270" width="330" height="70" as="geometry" />
        </mxCell>
        <mxCell id="QajGnKFh3IwkEZgxlkdg-15" value="&lt;span style=&quot;color: rgb(0, 0, 0); font-family: &amp;quot;Nunito Sans&amp;quot;, sans-serif; text-align: left; background-color: rgb(255, 255, 255);&quot;&gt;&lt;font style=&quot;font-size: 24px;&quot;&gt;Création d’un&amp;nbsp; compte Étudiant&amp;nbsp;&lt;/font&gt;&lt;/span&gt;" style="ellipse;whiteSpace=wrap;html=1;" vertex="1" parent="1">
          <mxGeometry x="1150" y="140" width="330" height="80" as="geometry" />
        </mxCell>
        <mxCell id="QajGnKFh3IwkEZgxlkdg-16" value="&lt;span style=&quot;color: rgb(0, 0, 0); font-family: &amp;quot;Nunito Sans&amp;quot;, sans-serif; text-align: left; background-color: rgb(255, 255, 255);&quot;&gt;&lt;font style=&quot;font-size: 24px;&quot;&gt;Regester&lt;/font&gt;&lt;/span&gt;" style="ellipse;whiteSpace=wrap;html=1;" vertex="1" parent="1">
          <mxGeometry x="505.63" y="190" width="334.37" height="60" as="geometry" />
        </mxCell>
        <mxCell id="QajGnKFh3IwkEZgxlkdg-17" value="" style="endArrow=none;dashed=1;html=1;dashPattern=1 3;strokeWidth=2;rounded=0;entryX=0;entryY=0.5;entryDx=0;entryDy=0;exitX=1;exitY=0.5;exitDx=0;exitDy=0;" edge="1" parent="1" source="QajGnKFh3IwkEZgxlkdg-16" target="QajGnKFh3IwkEZgxlkdg-14">
          <mxGeometry width="50" height="50" relative="1" as="geometry">
            <mxPoint x="460" y="630" as="sourcePoint" />
            <mxPoint x="510" y="580" as="targetPoint" />
            <Array as="points" />
          </mxGeometry>
        </mxCell>
        <mxCell id="QajGnKFh3IwkEZgxlkdg-18" value="" style="endArrow=none;dashed=1;html=1;dashPattern=1 3;strokeWidth=2;rounded=0;entryX=0;entryY=0.5;entryDx=0;entryDy=0;exitX=1;exitY=0.5;exitDx=0;exitDy=0;" edge="1" parent="1" source="QajGnKFh3IwkEZgxlkdg-16" target="QajGnKFh3IwkEZgxlkdg-15">
          <mxGeometry width="50" height="50" relative="1" as="geometry">
            <mxPoint x="460" y="630" as="sourcePoint" />
            <mxPoint x="510" y="580" as="targetPoint" />
          </mxGeometry>
        </mxCell>
        <mxCell id="QajGnKFh3IwkEZgxlkdg-20" value="" style="endArrow=none;html=1;rounded=0;entryX=0;entryY=0.5;entryDx=0;entryDy=0;" edge="1" parent="1" source="QajGnKFh3IwkEZgxlkdg-2" target="QajGnKFh3IwkEZgxlkdg-13">
          <mxGeometry width="50" height="50" relative="1" as="geometry">
            <mxPoint x="170" y="310" as="sourcePoint" />
            <mxPoint x="490" y="245" as="targetPoint" />
            <Array as="points" />
          </mxGeometry>
        </mxCell>
        <mxCell id="QajGnKFh3IwkEZgxlkdg-21" value="" style="endArrow=none;html=1;rounded=0;entryX=0;entryY=0.5;entryDx=0;entryDy=0;exitX=0.5;exitY=0.5;exitDx=0;exitDy=0;exitPerimeter=0;" edge="1" parent="1" source="QajGnKFh3IwkEZgxlkdg-2" target="QajGnKFh3IwkEZgxlkdg-16">
          <mxGeometry width="50" height="50" relative="1" as="geometry">
            <mxPoint x="130" y="330" as="sourcePoint" />
            <mxPoint x="500" y="255" as="targetPoint" />
            <Array as="points" />
          </mxGeometry>
        </mxCell>
        <mxCell id="QajGnKFh3IwkEZgxlkdg-24" value="&lt;font style=&quot;font-size: 24px;&quot;&gt;Visualiasation du catalogue des cours&lt;/font&gt;" style="ellipse;whiteSpace=wrap;html=1;" vertex="1" parent="1">
          <mxGeometry x="490" y="370" width="380" height="90" as="geometry" />
        </mxCell>
        <mxCell id="QajGnKFh3IwkEZgxlkdg-25" value="" style="endArrow=none;html=1;rounded=0;exitX=0;exitY=0.5;exitDx=0;exitDy=0;" edge="1" parent="1" source="QajGnKFh3IwkEZgxlkdg-24" target="QajGnKFh3IwkEZgxlkdg-3">
          <mxGeometry width="50" height="50" relative="1" as="geometry">
            <mxPoint x="460" y="630" as="sourcePoint" />
            <mxPoint x="510" y="580" as="targetPoint" />
          </mxGeometry>
        </mxCell>
        <mxCell id="QajGnKFh3IwkEZgxlkdg-27" value="&lt;span style=&quot;color: rgb(0, 0, 0); font-family: &amp;quot;Nunito Sans&amp;quot;, sans-serif; text-align: left; background-color: rgb(255, 255, 255);&quot;&gt;&lt;font style=&quot;font-size: 24px;&quot;&gt;Recherche et consultation des détails des cours&amp;nbsp;&lt;/font&gt;&lt;/span&gt;" style="ellipse;whiteSpace=wrap;html=1;" vertex="1" parent="1">
          <mxGeometry x="497.5" y="470" width="397.5" height="80" as="geometry" />
        </mxCell>
        <mxCell id="QajGnKFh3IwkEZgxlkdg-28" value="" style="endArrow=none;html=1;rounded=0;exitX=0;exitY=0.5;exitDx=0;exitDy=0;" edge="1" parent="1" source="QajGnKFh3IwkEZgxlkdg-27" target="QajGnKFh3IwkEZgxlkdg-3">
          <mxGeometry width="50" height="50" relative="1" as="geometry">
            <mxPoint x="479" y="724.5" as="sourcePoint" />
            <mxPoint x="189" y="544.5" as="targetPoint" />
          </mxGeometry>
        </mxCell>
        <mxCell id="QajGnKFh3IwkEZgxlkdg-29" value="&lt;font style=&quot;font-size: 24px;&quot;&gt;Login&lt;/font&gt;" style="ellipse;whiteSpace=wrap;html=1;" vertex="1" parent="1">
          <mxGeometry x="530" y="660" width="320" height="80" as="geometry" />
        </mxCell>
        <mxCell id="QajGnKFh3IwkEZgxlkdg-30" value="" style="endArrow=none;html=1;rounded=0;entryX=0;entryY=0.5;entryDx=0;entryDy=0;" edge="1" parent="1" target="QajGnKFh3IwkEZgxlkdg-29" source="QajGnKFh3IwkEZgxlkdg-3">
          <mxGeometry width="50" height="50" relative="1" as="geometry">
            <mxPoint x="180" y="671" as="sourcePoint" />
            <mxPoint x="370" y="681" as="targetPoint" />
            <Array as="points" />
          </mxGeometry>
        </mxCell>
        <mxCell id="QajGnKFh3IwkEZgxlkdg-35" value="&lt;span style=&quot;color: rgb(0, 0, 0); font-family: &amp;quot;Nunito Sans&amp;quot;, sans-serif; text-align: left; background-color: rgb(255, 255, 255);&quot;&gt;&lt;font style=&quot;font-size: 24px;&quot;&gt;Inscription&lt;/font&gt;&lt;/span&gt;" style="ellipse;whiteSpace=wrap;html=1;" vertex="1" parent="1">
          <mxGeometry x="1245" y="640" width="230" height="70" as="geometry" />
        </mxCell>
        <mxCell id="QajGnKFh3IwkEZgxlkdg-36" value="" style="endArrow=none;dashed=1;html=1;dashPattern=1 3;strokeWidth=2;rounded=0;entryX=0;entryY=0.5;entryDx=0;entryDy=0;" edge="1" parent="1" target="QajGnKFh3IwkEZgxlkdg-35" source="QajGnKFh3IwkEZgxlkdg-29">
          <mxGeometry width="50" height="50" relative="1" as="geometry">
            <mxPoint x="633" y="698" as="sourcePoint" />
            <mxPoint x="523" y="983" as="targetPoint" />
          </mxGeometry>
        </mxCell>
        <mxCell id="QajGnKFh3IwkEZgxlkdg-37" value="&lt;font style=&quot;font-size: 24px;&quot;&gt;&lt;span style=&quot;color: rgb(0, 0, 0); font-family: &amp;quot;Nunito Sans&amp;quot;, sans-serif; text-align: left; background-color: rgb(255, 255, 255);&quot;&gt;Accès à&amp;nbsp;&lt;/span&gt;&lt;span style=&quot;color: rgb(0, 0, 0); font-family: &amp;quot;Nunito Sans&amp;quot;, sans-serif; text-align: left; background-color: rgb(255, 255, 255);&quot;&gt;section “Mes cours”&lt;/span&gt;&lt;/font&gt;" style="ellipse;whiteSpace=wrap;html=1;" vertex="1" parent="1">
          <mxGeometry x="500" y="570" width="382.5" height="70" as="geometry" />
        </mxCell>
        <mxCell id="QajGnKFh3IwkEZgxlkdg-38" value="" style="endArrow=none;html=1;rounded=0;entryX=0;entryY=0.5;entryDx=0;entryDy=0;" edge="1" parent="1" source="QajGnKFh3IwkEZgxlkdg-3" target="QajGnKFh3IwkEZgxlkdg-37">
          <mxGeometry width="50" height="50" relative="1" as="geometry">
            <mxPoint x="350" y="680" as="sourcePoint" />
            <mxPoint x="400" y="630" as="targetPoint" />
          </mxGeometry>
        </mxCell>
        <mxCell id="QajGnKFh3IwkEZgxlkdg-40" value="" style="endArrow=none;html=1;rounded=0;exitX=0;exitY=0.5;exitDx=0;exitDy=0;" edge="1" parent="1" source="QajGnKFh3IwkEZgxlkdg-29">
          <mxGeometry width="50" height="50" relative="1" as="geometry">
            <mxPoint x="665" y="690" as="sourcePoint" />
            <mxPoint x="140" y="787" as="targetPoint" />
          </mxGeometry>
        </mxCell>
        <mxCell id="QajGnKFh3IwkEZgxlkdg-41" value="&lt;span style=&quot;color: rgb(0, 0, 0); font-family: &amp;quot;Nunito Sans&amp;quot;, sans-serif; text-align: left; background-color: rgb(255, 255, 255);&quot;&gt;&lt;font style=&quot;font-size: 24px;&quot;&gt;Ajout de nouveaux cours&lt;/font&gt;&lt;/span&gt;" style="ellipse;whiteSpace=wrap;html=1;" vertex="1" parent="1">
          <mxGeometry x="540" y="760" width="297.5" height="84" as="geometry" />
        </mxCell>
        <mxCell id="QajGnKFh3IwkEZgxlkdg-42" value="" style="endArrow=none;html=1;rounded=0;exitX=0;exitY=0.5;exitDx=0;exitDy=0;" edge="1" parent="1" source="QajGnKFh3IwkEZgxlkdg-41">
          <mxGeometry width="50" height="50" relative="1" as="geometry">
            <mxPoint x="489" y="1004.5" as="sourcePoint" />
            <mxPoint x="140" y="790" as="targetPoint" />
          </mxGeometry>
        </mxCell>
        <mxCell id="QajGnKFh3IwkEZgxlkdg-43" value="&lt;span style=&quot;color: rgb(0, 0, 0); font-family: &amp;quot;Nunito Sans&amp;quot;, sans-serif; text-align: left; background-color: rgb(255, 255, 255);&quot;&gt;&lt;font style=&quot;font-size: 24px;&quot;&gt;Gestion des cours&amp;nbsp;&lt;/font&gt;&lt;/span&gt;" style="ellipse;whiteSpace=wrap;html=1;" vertex="1" parent="1">
          <mxGeometry x="553.4399999999999" y="850" width="275.62" height="85" as="geometry" />
        </mxCell>
        <mxCell id="QajGnKFh3IwkEZgxlkdg-44" value="" style="endArrow=none;html=1;rounded=0;entryX=0;entryY=0.5;entryDx=0;entryDy=0;" edge="1" parent="1" target="QajGnKFh3IwkEZgxlkdg-43">
          <mxGeometry width="50" height="50" relative="1" as="geometry">
            <mxPoint x="140" y="793" as="sourcePoint" />
            <mxPoint x="380" y="961" as="targetPoint" />
            <Array as="points" />
          </mxGeometry>
        </mxCell>
        <mxCell id="QajGnKFh3IwkEZgxlkdg-45" value="&lt;span style=&quot;color: rgb(0, 0, 0); font-family: &amp;quot;Nunito Sans&amp;quot;, sans-serif; text-align: left; background-color: rgb(255, 255, 255);&quot;&gt;&lt;font style=&quot;font-size: 24px;&quot;&gt;Accès à une section “Statistiques” sur les cours&lt;/font&gt;&lt;/span&gt;" style="ellipse;whiteSpace=wrap;html=1;" vertex="1" parent="1">
          <mxGeometry x="527.5" y="960" width="327.5" height="90" as="geometry" />
        </mxCell>
        <mxCell id="QajGnKFh3IwkEZgxlkdg-46" value="" style="endArrow=none;html=1;rounded=0;entryX=0;entryY=0.5;entryDx=0;entryDy=0;" edge="1" parent="1" target="QajGnKFh3IwkEZgxlkdg-45">
          <mxGeometry width="50" height="50" relative="1" as="geometry">
            <mxPoint x="140" y="796" as="sourcePoint" />
            <mxPoint x="410" y="910" as="targetPoint" />
          </mxGeometry>
        </mxCell>
        <mxCell id="QajGnKFh3IwkEZgxlkdg-50" value="&lt;span style=&quot;color: rgb(0, 0, 0); font-family: &amp;quot;Nunito Sans&amp;quot;, sans-serif; text-align: left; background-color: rgb(255, 255, 255);&quot;&gt;&lt;font style=&quot;font-size: 24px;&quot;&gt;Validation des comptes enseignants&lt;/font&gt;&lt;/span&gt;" style="ellipse;whiteSpace=wrap;html=1;" vertex="1" parent="1">
          <mxGeometry x="513.75" y="1069" width="302.5" height="100" as="geometry" />
        </mxCell>
        <mxCell id="QajGnKFh3IwkEZgxlkdg-51" value="" style="endArrow=none;html=1;rounded=0;exitX=0;exitY=0.5;exitDx=0;exitDy=0;" edge="1" parent="1" source="QajGnKFh3IwkEZgxlkdg-50">
          <mxGeometry width="50" height="50" relative="1" as="geometry">
            <mxPoint x="675" y="990" as="sourcePoint" />
            <mxPoint x="120" y="1180" as="targetPoint" />
          </mxGeometry>
        </mxCell>
        <mxCell id="QajGnKFh3IwkEZgxlkdg-52" value="" style="endArrow=none;html=1;rounded=0;exitX=0;exitY=0.5;exitDx=0;exitDy=0;" edge="1" parent="1" source="QajGnKFh3IwkEZgxlkdg-57" target="QajGnKFh3IwkEZgxlkdg-5">
          <mxGeometry width="50" height="50" relative="1" as="geometry">
            <mxPoint x="543" y="1010" as="sourcePoint" />
            <mxPoint x="150" y="1090" as="targetPoint" />
          </mxGeometry>
        </mxCell>
        <mxCell id="QajGnKFh3IwkEZgxlkdg-53" value="&lt;span style=&quot;color: rgb(0, 0, 0); font-family: &amp;quot;Nunito Sans&amp;quot;, sans-serif; text-align: left; background-color: rgb(255, 255, 255);&quot;&gt;&lt;font style=&quot;font-size: 24px;&quot;&gt;Gestion des contenus&lt;/font&gt;&lt;/span&gt;" style="ellipse;whiteSpace=wrap;html=1;" vertex="1" parent="1">
          <mxGeometry x="542.81" y="1350" width="267.5" height="90" as="geometry" />
        </mxCell>
        <mxCell id="QajGnKFh3IwkEZgxlkdg-54" value="" style="endArrow=none;html=1;rounded=0;entryX=0;entryY=0.5;entryDx=0;entryDy=0;" edge="1" parent="1" target="QajGnKFh3IwkEZgxlkdg-53" source="QajGnKFh3IwkEZgxlkdg-5">
          <mxGeometry width="50" height="50" relative="1" as="geometry">
            <mxPoint x="130" y="1000" as="sourcePoint" />
            <mxPoint x="390" y="1261" as="targetPoint" />
            <Array as="points" />
          </mxGeometry>
        </mxCell>
        <mxCell id="QajGnKFh3IwkEZgxlkdg-55" value="&lt;span style=&quot;color: rgb(0, 0, 0); font-family: &amp;quot;Nunito Sans&amp;quot;, sans-serif; text-align: left; background-color: rgb(255, 255, 255);&quot;&gt;&lt;font style=&quot;font-size: 24px;&quot;&gt;Insertion en masse de tags&amp;nbsp;&lt;/font&gt;&lt;/span&gt;" style="ellipse;whiteSpace=wrap;html=1;" vertex="1" parent="1">
          <mxGeometry x="542.81" y="1480" width="286.25" height="100" as="geometry" />
        </mxCell>
        <mxCell id="QajGnKFh3IwkEZgxlkdg-56" value="" style="endArrow=none;html=1;rounded=0;entryX=0;entryY=0.5;entryDx=0;entryDy=0;" edge="1" parent="1" target="QajGnKFh3IwkEZgxlkdg-55" source="QajGnKFh3IwkEZgxlkdg-5">
          <mxGeometry width="50" height="50" relative="1" as="geometry">
            <mxPoint x="150" y="1096" as="sourcePoint" />
            <mxPoint x="420" y="1210" as="targetPoint" />
          </mxGeometry>
        </mxCell>
        <mxCell id="QajGnKFh3IwkEZgxlkdg-57" value="&lt;span style=&quot;color: rgb(0, 0, 0); font-family: &amp;quot;Nunito Sans&amp;quot;, sans-serif; text-align: left; background-color: rgb(255, 255, 255);&quot;&gt;&lt;font style=&quot;font-size: 24px;&quot;&gt;Gestion des utilisateurs&lt;/font&gt;&lt;/span&gt;" style="ellipse;whiteSpace=wrap;html=1;" vertex="1" parent="1">
          <mxGeometry x="527.5" y="1190" width="270" height="100" as="geometry" />
        </mxCell>
        <mxCell id="QajGnKFh3IwkEZgxlkdg-65" value="&lt;span style=&quot;color: rgb(0, 0, 0); font-family: &amp;quot;Nunito Sans&amp;quot;, sans-serif; text-align: left; background-color: rgb(255, 255, 255);&quot;&gt;&lt;font style=&quot;font-size: 24px;&quot;&gt;Accès à des statistiques globales&lt;/font&gt;&lt;/span&gt;" style="ellipse;whiteSpace=wrap;html=1;" vertex="1" parent="1">
          <mxGeometry x="530" y="1620" width="276.25" height="100" as="geometry" />
        </mxCell>
        <mxCell id="QajGnKFh3IwkEZgxlkdg-66" value="" style="endArrow=none;html=1;rounded=0;entryX=0;entryY=0.5;entryDx=0;entryDy=0;" edge="1" parent="1" target="QajGnKFh3IwkEZgxlkdg-65" source="QajGnKFh3IwkEZgxlkdg-5">
          <mxGeometry width="50" height="50" relative="1" as="geometry">
            <mxPoint x="130" y="1010" as="sourcePoint" />
            <mxPoint x="422.5" y="1275" as="targetPoint" />
          </mxGeometry>
        </mxCell>
        <mxCell id="QajGnKFh3IwkEZgxlkdg-5" value="Admin" style="shape=umlActor;verticalLabelPosition=bottom;verticalAlign=top;html=1;outlineConnect=0;" vertex="1" parent="1">
          <mxGeometry x="70" y="1169" width="30" height="60" as="geometry" />
        </mxCell>
        <mxCell id="QajGnKFh3IwkEZgxlkdg-72" value="" style="endArrow=none;html=1;rounded=0;entryX=0;entryY=0.5;entryDx=0;entryDy=0;" edge="1" parent="1" target="QajGnKFh3IwkEZgxlkdg-29">
          <mxGeometry width="50" height="50" relative="1" as="geometry">
            <mxPoint x="110" y="1180" as="sourcePoint" />
            <mxPoint x="520" y="640" as="targetPoint" />
            <Array as="points" />
          </mxGeometry>
        </mxCell>
        <mxCell id="QajGnKFh3IwkEZgxlkdg-73" value="&lt;span style=&quot;color: rgb(0, 0, 0); font-family: &amp;quot;Nunito Sans&amp;quot;, sans-serif; text-align: left; background-color: rgb(255, 255, 255);&quot;&gt;&lt;font style=&quot;font-size: 24px;&quot;&gt;&lt;span style=&quot;color: rgb(0, 0, 0); background-color: rgb(255, 255, 255);&quot;&gt;consultation&amp;nbsp;&lt;span style=&quot;color: rgb(0, 0, 0); background-color: rgb(255, 255, 255);&quot;&gt;des&amp;nbsp; &amp;nbsp;&lt;/span&gt;&amp;nbsp;&lt;/span&gt;Modification&lt;/font&gt;&lt;/span&gt;" style="ellipse;whiteSpace=wrap;html=1;" vertex="1" parent="1">
          <mxGeometry x="1220" y="736" width="260" height="84" as="geometry" />
        </mxCell>
        <mxCell id="QajGnKFh3IwkEZgxlkdg-74" value="" style="endArrow=none;dashed=1;html=1;dashPattern=1 3;strokeWidth=2;rounded=0;entryX=0;entryY=0.5;entryDx=0;entryDy=0;exitX=1;exitY=0.5;exitDx=0;exitDy=0;" edge="1" parent="1" target="QajGnKFh3IwkEZgxlkdg-73" source="QajGnKFh3IwkEZgxlkdg-43">
          <mxGeometry width="50" height="50" relative="1" as="geometry">
            <mxPoint x="710" y="780" as="sourcePoint" />
            <mxPoint x="528.5" y="1063" as="targetPoint" />
          </mxGeometry>
        </mxCell>
        <mxCell id="QajGnKFh3IwkEZgxlkdg-75" value="&lt;span style=&quot;color: rgb(0, 0, 0); font-family: &amp;quot;Nunito Sans&amp;quot;, sans-serif; text-align: left; background-color: rgb(255, 255, 255);&quot;&gt;&lt;font style=&quot;font-size: 24px;&quot;&gt;&lt;span style=&quot;color: rgb(0, 0, 0); background-color: rgb(255, 255, 255);&quot;&gt;consultation&amp;nbsp;&lt;/span&gt;&lt;span style=&quot;color: rgb(0, 0, 0); background-color: rgb(255, 255, 255);&quot;&gt;des&amp;nbsp; &amp;nbsp;&lt;/span&gt;suppression&amp;nbsp;&lt;/font&gt;&lt;/span&gt;" style="ellipse;whiteSpace=wrap;html=1;" vertex="1" parent="1">
          <mxGeometry x="1215" y="847.5" width="270" height="90" as="geometry" />
        </mxCell>
        <mxCell id="QajGnKFh3IwkEZgxlkdg-76" value="" style="endArrow=none;dashed=1;html=1;dashPattern=1 3;strokeWidth=2;rounded=0;entryX=0;entryY=0.5;entryDx=0;entryDy=0;exitX=1;exitY=0.5;exitDx=0;exitDy=0;" edge="1" parent="1" target="QajGnKFh3IwkEZgxlkdg-75" source="QajGnKFh3IwkEZgxlkdg-43">
          <mxGeometry width="50" height="50" relative="1" as="geometry">
            <mxPoint x="720" y="790" as="sourcePoint" />
            <mxPoint x="538.5" y="1073" as="targetPoint" />
          </mxGeometry>
        </mxCell>
        <mxCell id="QajGnKFh3IwkEZgxlkdg-78" value="&lt;span style=&quot;color: rgb(0, 0, 0); font-family: &amp;quot;Nunito Sans&amp;quot;, sans-serif; text-align: left; background-color: rgb(255, 255, 255);&quot;&gt;&lt;font style=&quot;font-size: 24px;&quot;&gt;consultation des inscriptions&amp;nbsp;&lt;/font&gt;&lt;/span&gt;" style="ellipse;whiteSpace=wrap;html=1;" vertex="1" parent="1">
          <mxGeometry x="1230" y="960" width="260" height="90" as="geometry" />
        </mxCell>
        <mxCell id="QajGnKFh3IwkEZgxlkdg-79" value="" style="endArrow=none;dashed=1;html=1;dashPattern=1 3;strokeWidth=2;rounded=0;entryX=0;entryY=0.5;entryDx=0;entryDy=0;exitX=1;exitY=0.5;exitDx=0;exitDy=0;" edge="1" parent="1" target="QajGnKFh3IwkEZgxlkdg-78" source="QajGnKFh3IwkEZgxlkdg-43">
          <mxGeometry width="50" height="50" relative="1" as="geometry">
            <mxPoint x="717.5" y="860" as="sourcePoint" />
            <mxPoint x="544" y="1153" as="targetPoint" />
          </mxGeometry>
        </mxCell>
        <mxCell id="QajGnKFh3IwkEZgxlkdg-84" value="&lt;font style=&quot;font-size: 40px;&quot;&gt;Système de plate&lt;/font&gt;&lt;span style=&quot;font-size: 36px;&quot;&gt;forme Youdemy&lt;/span&gt;" style="text;strokeColor=none;align=center;fillColor=none;html=1;verticalAlign=middle;whiteSpace=wrap;rounded=0;" vertex="1" parent="1">
          <mxGeometry x="895" y="-80" width="680" height="80" as="geometry" />
        </mxCell>
        <mxCell id="QajGnKFh3IwkEZgxlkdg-87" value="&lt;span style=&quot;color: rgb(0, 0, 0); font-family: &amp;quot;Nunito Sans&amp;quot;, sans-serif; text-align: left; background-color: rgb(255, 255, 255);&quot;&gt;&lt;font style=&quot;font-size: 24px;&quot;&gt;Activation&lt;/font&gt;&lt;/span&gt;" style="ellipse;whiteSpace=wrap;html=1;" vertex="1" parent="1">
          <mxGeometry x="1485" y="1030" width="205" height="90" as="geometry" />
        </mxCell>
        <mxCell id="QajGnKFh3IwkEZgxlkdg-88" value="" style="endArrow=none;dashed=1;html=1;dashPattern=1 3;strokeWidth=2;rounded=0;entryX=0;entryY=0.5;entryDx=0;entryDy=0;exitX=1;exitY=0.5;exitDx=0;exitDy=0;" edge="1" parent="1" target="QajGnKFh3IwkEZgxlkdg-87" source="QajGnKFh3IwkEZgxlkdg-57">
          <mxGeometry width="50" height="50" relative="1" as="geometry">
            <mxPoint x="740" y="1010" as="sourcePoint" />
            <mxPoint x="536" y="1303" as="targetPoint" />
          </mxGeometry>
        </mxCell>
        <mxCell id="QajGnKFh3IwkEZgxlkdg-89" value="&lt;span style=&quot;color: rgb(0, 0, 0); font-family: &amp;quot;Nunito Sans&amp;quot;, sans-serif; text-align: left; background-color: rgb(255, 255, 255);&quot;&gt;&lt;font style=&quot;font-size: 24px;&quot;&gt;suspension&amp;nbsp;&lt;/font&gt;&lt;/span&gt;" style="ellipse;whiteSpace=wrap;html=1;" vertex="1" parent="1">
          <mxGeometry x="1470" y="1130" width="210" height="80" as="geometry" />
        </mxCell>
        <mxCell id="QajGnKFh3IwkEZgxlkdg-90" value="" style="endArrow=none;dashed=1;html=1;dashPattern=1 3;strokeWidth=2;rounded=0;entryX=0;entryY=0.5;entryDx=0;entryDy=0;exitX=1;exitY=0.5;exitDx=0;exitDy=0;" edge="1" parent="1" target="QajGnKFh3IwkEZgxlkdg-89" source="QajGnKFh3IwkEZgxlkdg-57">
          <mxGeometry width="50" height="50" relative="1" as="geometry">
            <mxPoint x="721" y="1020" as="sourcePoint" />
            <mxPoint x="546" y="1313" as="targetPoint" />
          </mxGeometry>
        </mxCell>
        <mxCell id="QajGnKFh3IwkEZgxlkdg-91" value="&lt;span style=&quot;color: rgb(0, 0, 0); font-family: &amp;quot;Nunito Sans&amp;quot;, sans-serif; text-align: left; background-color: rgb(255, 255, 255);&quot;&gt;&lt;font style=&quot;font-size: 24px;&quot;&gt;suppression&lt;/font&gt;&lt;/span&gt;" style="ellipse;whiteSpace=wrap;html=1;" vertex="1" parent="1">
          <mxGeometry x="1470" y="1220" width="210" height="80" as="geometry" />
        </mxCell>
        <mxCell id="QajGnKFh3IwkEZgxlkdg-92" value="" style="endArrow=none;dashed=1;html=1;dashPattern=1 3;strokeWidth=2;rounded=0;entryX=0;entryY=0.5;entryDx=0;entryDy=0;exitX=1;exitY=0.5;exitDx=0;exitDy=0;" edge="1" parent="1" target="QajGnKFh3IwkEZgxlkdg-91" source="QajGnKFh3IwkEZgxlkdg-57">
          <mxGeometry width="50" height="50" relative="1" as="geometry">
            <mxPoint x="720.5" y="1020" as="sourcePoint" />
            <mxPoint x="551.5" y="1393" as="targetPoint" />
          </mxGeometry>
        </mxCell>
        <mxCell id="QajGnKFh3IwkEZgxlkdg-93" value="&lt;span style=&quot;color: rgb(0, 0, 0); font-family: &amp;quot;Nunito Sans&amp;quot;, sans-serif; text-align: left; background-color: rgb(255, 255, 255);&quot;&gt;&lt;font style=&quot;font-size: 24px;&quot;&gt;Cours&lt;/font&gt;&lt;/span&gt;" style="ellipse;whiteSpace=wrap;html=1;" vertex="1" parent="1">
          <mxGeometry x="1203.75" y="1270" width="246.25" height="80" as="geometry" />
        </mxCell>
        <mxCell id="QajGnKFh3IwkEZgxlkdg-94" value="" style="endArrow=none;dashed=1;html=1;dashPattern=1 3;strokeWidth=2;rounded=0;entryX=0;entryY=0.5;entryDx=0;entryDy=0;exitX=1;exitY=0.5;exitDx=0;exitDy=0;" edge="1" parent="1" target="QajGnKFh3IwkEZgxlkdg-93" source="QajGnKFh3IwkEZgxlkdg-53">
          <mxGeometry width="50" height="50" relative="1" as="geometry">
            <mxPoint x="619.5" y="1460" as="sourcePoint" />
            <mxPoint x="438" y="1743" as="targetPoint" />
          </mxGeometry>
        </mxCell>
        <mxCell id="QajGnKFh3IwkEZgxlkdg-95" value="&lt;span style=&quot;color: rgb(0, 0, 0); font-family: &amp;quot;Nunito Sans&amp;quot;, sans-serif; text-align: left; background-color: rgb(255, 255, 255);&quot;&gt;&lt;font style=&quot;font-size: 24px;&quot;&gt;catégories&amp;nbsp;&lt;/font&gt;&lt;/span&gt;" style="ellipse;whiteSpace=wrap;html=1;" vertex="1" parent="1">
          <mxGeometry x="1193.75" y="1360" width="256.25" height="90" as="geometry" />
        </mxCell>
        <mxCell id="QajGnKFh3IwkEZgxlkdg-96" value="" style="endArrow=none;dashed=1;html=1;dashPattern=1 3;strokeWidth=2;rounded=0;entryX=0;entryY=0.5;entryDx=0;entryDy=0;exitX=1;exitY=0.5;exitDx=0;exitDy=0;" edge="1" parent="1" target="QajGnKFh3IwkEZgxlkdg-95" source="QajGnKFh3IwkEZgxlkdg-53">
          <mxGeometry width="50" height="50" relative="1" as="geometry">
            <mxPoint x="622.5" y="1460" as="sourcePoint" />
            <mxPoint x="448" y="1753" as="targetPoint" />
          </mxGeometry>
        </mxCell>
        <mxCell id="QajGnKFh3IwkEZgxlkdg-97" value="&lt;span style=&quot;color: rgb(0, 0, 0); font-family: &amp;quot;Nunito Sans&amp;quot;, sans-serif; text-align: left; background-color: rgb(255, 255, 255);&quot;&gt;&lt;font style=&quot;font-size: 24px;&quot;&gt;tags&lt;/font&gt;&lt;/span&gt;" style="ellipse;whiteSpace=wrap;html=1;" vertex="1" parent="1">
          <mxGeometry x="1193.75" y="1460" width="266.25" height="90" as="geometry" />
        </mxCell>
        <mxCell id="QajGnKFh3IwkEZgxlkdg-98" value="" style="endArrow=none;dashed=1;html=1;dashPattern=1 3;strokeWidth=2;rounded=0;entryX=0;entryY=0.5;entryDx=0;entryDy=0;exitX=1;exitY=0.5;exitDx=0;exitDy=0;" edge="1" parent="1" target="QajGnKFh3IwkEZgxlkdg-97" source="QajGnKFh3IwkEZgxlkdg-53">
          <mxGeometry width="50" height="50" relative="1" as="geometry">
            <mxPoint x="622.5" y="1460" as="sourcePoint" />
            <mxPoint x="453.5" y="1833" as="targetPoint" />
          </mxGeometry>
        </mxCell>
        <mxCell id="QajGnKFh3IwkEZgxlkdg-115" value="&lt;span style=&quot;color: rgb(0, 0, 0); font-family: &amp;quot;Nunito Sans&amp;quot;, sans-serif; text-align: left; background-color: rgb(255, 255, 255);&quot;&gt;&lt;font style=&quot;font-size: 24px;&quot;&gt;Nombre total de cours,&lt;/font&gt;&lt;/span&gt;" style="ellipse;whiteSpace=wrap;html=1;" vertex="1" parent="1">
          <mxGeometry x="1215" y="1580" width="255" height="80" as="geometry" />
        </mxCell>
        <mxCell id="QajGnKFh3IwkEZgxlkdg-116" value="" style="endArrow=none;dashed=1;html=1;dashPattern=1 3;strokeWidth=2;rounded=0;entryX=0;entryY=0.5;entryDx=0;entryDy=0;exitX=1;exitY=0.5;exitDx=0;exitDy=0;" edge="1" parent="1" target="QajGnKFh3IwkEZgxlkdg-115" source="QajGnKFh3IwkEZgxlkdg-65">
          <mxGeometry width="50" height="50" relative="1" as="geometry">
            <mxPoint x="810" y="1709" as="sourcePoint" />
            <mxPoint x="448" y="2087" as="targetPoint" />
          </mxGeometry>
        </mxCell>
        <mxCell id="QajGnKFh3IwkEZgxlkdg-117" value="&lt;span style=&quot;color: rgb(0, 0, 0); font-family: &amp;quot;Nunito Sans&amp;quot;, sans-serif; text-align: left; background-color: rgb(255, 255, 255);&quot;&gt;&lt;font style=&quot;font-size: 24px;&quot;&gt;répartition par catégorie,&lt;/font&gt;&lt;/span&gt;" style="ellipse;whiteSpace=wrap;html=1;" vertex="1" parent="1">
          <mxGeometry x="1215" y="1680" width="255" height="90" as="geometry" />
        </mxCell>
        <mxCell id="QajGnKFh3IwkEZgxlkdg-118" value="" style="endArrow=none;dashed=1;html=1;dashPattern=1 3;strokeWidth=2;rounded=0;entryX=0;entryY=0.5;entryDx=0;entryDy=0;exitX=1;exitY=0.5;exitDx=0;exitDy=0;" edge="1" parent="1" target="QajGnKFh3IwkEZgxlkdg-117" source="QajGnKFh3IwkEZgxlkdg-65">
          <mxGeometry width="50" height="50" relative="1" as="geometry">
            <mxPoint x="810" y="1709" as="sourcePoint" />
            <mxPoint x="458" y="2097" as="targetPoint" />
          </mxGeometry>
        </mxCell>
        <mxCell id="QajGnKFh3IwkEZgxlkdg-119" value="&lt;span style=&quot;color: rgb(0, 0, 0); font-family: &amp;quot;Nunito Sans&amp;quot;, sans-serif; text-align: left; background-color: rgb(255, 255, 255);&quot;&gt;&lt;font style=&quot;font-size: 24px;&quot;&gt;Le cour avec le plus d&#39; étudiants&lt;/font&gt;&lt;/span&gt;" style="ellipse;whiteSpace=wrap;html=1;" vertex="1" parent="1">
          <mxGeometry x="1203.75" y="1804" width="286.25" height="90" as="geometry" />
        </mxCell>
        <mxCell id="QajGnKFh3IwkEZgxlkdg-120" value="" style="endArrow=none;dashed=1;html=1;dashPattern=1 3;strokeWidth=2;rounded=0;entryX=0;entryY=0.5;entryDx=0;entryDy=0;exitX=1;exitY=0.5;exitDx=0;exitDy=0;" edge="1" parent="1" target="QajGnKFh3IwkEZgxlkdg-119" source="QajGnKFh3IwkEZgxlkdg-65">
          <mxGeometry width="50" height="50" relative="1" as="geometry">
            <mxPoint x="810" y="1709" as="sourcePoint" />
            <mxPoint x="463.5" y="2177" as="targetPoint" />
          </mxGeometry>
        </mxCell>
        <mxCell id="QajGnKFh3IwkEZgxlkdg-122" value="&lt;span style=&quot;color: rgb(0, 0, 0); font-family: &amp;quot;Nunito Sans&amp;quot;, sans-serif; text-align: left; background-color: rgb(255, 255, 255);&quot;&gt;&lt;font style=&quot;font-size: 24px;&quot;&gt;&amp;nbsp;Les Top 3 enseignants&lt;/font&gt;&lt;/span&gt;" style="ellipse;whiteSpace=wrap;html=1;" vertex="1" parent="1">
          <mxGeometry x="1213.75" y="1920" width="256.25" height="84" as="geometry" />
        </mxCell>
        <mxCell id="QajGnKFh3IwkEZgxlkdg-123" value="" style="endArrow=none;dashed=1;html=1;dashPattern=1 3;strokeWidth=2;rounded=0;entryX=0;entryY=0.5;entryDx=0;entryDy=0;" edge="1" parent="1" target="QajGnKFh3IwkEZgxlkdg-122">
          <mxGeometry width="50" height="50" relative="1" as="geometry">
            <mxPoint x="800" y="1660" as="sourcePoint" />
            <mxPoint x="455" y="2287" as="targetPoint" />
          </mxGeometry>
        </mxCell>
      </root>
    </mxGraphModel>
  </diagram>
</mxfile>
